<svg width="49" height="49" viewBox="0 0 49 49" fill="none" xmlns="http://www.w3.org/2000/svg">
<path d="M24.5832 48.0556C37.8534 48.0556 48.611 37.298 48.611 24.0278C48.611 10.7576 37.8534 0 24.5832 0C11.313 0 0.55542 10.7576 0.55542 24.0278C0.55542 37.298 11.313 48.0556 24.5832 48.0556Z" fill="url(#paint0_linear_111_82)"/>
<path d="M13.2221 31.014C13.418 30.8181 13.6792 30.6876 14.0056 30.6876H40.9063C41.4286 30.6876 41.6245 31.2752 41.2981 31.6017L36.0093 36.8904C35.8135 37.0863 35.5523 37.2168 35.2258 37.2168H8.25986C7.73752 37.2168 7.54164 36.6292 7.8681 36.3027L13.2221 31.014Z" fill="white"/>
<path d="M13.2221 11.165C13.4179 10.9691 13.7444 10.8386 14.0056 10.8386H40.9062C41.4286 10.8386 41.6245 11.4262 41.298 11.7527L36.0093 17.0414C35.8134 17.2373 35.5522 17.3678 35.2258 17.3678H8.2598C7.73746 17.3678 7.54157 16.7802 7.86804 16.4537L13.2221 11.165Z" fill="white"/>
<path d="M36.0093 21.0243C35.8135 20.8284 35.5523 20.6978 35.2258 20.6978H8.25986C7.73752 20.6978 7.54164 21.2855 7.8681 21.6119L13.1568 26.9006C13.3527 27.0965 13.6139 27.2271 13.9403 27.2271H40.9063C41.4286 27.2271 41.6245 26.6395 41.2981 26.313L36.0093 21.0243Z" fill="white"/>
<defs>
<linearGradient id="paint0_linear_111_82" x1="45.6705" y1="2.5508" x2="6.58711" y2="42.4056" gradientUnits="userSpaceOnUse">
<stop stop-color="#00FFA3"/>
<stop offset="1" stop-color="#DC1FFF"/>
</linearGradient>
</defs>
</svg>
