<svg width="49" height="49" viewBox="0 0 49 49" fill="none" xmlns="http://www.w3.org/2000/svg">
<path d="M24.4167 48.0553C37.7364 48.0553 48.4443 37.3473 48.4443 24.0276C48.4443 10.708 37.7364 0 24.4167 0C11.0971 0 0.389089 10.708 0.389089 24.0276C0.323797 37.3473 11.0971 48.0553 24.4167 48.0553Z" fill="#2775CA"/>
<path d="M31.0112 27.8146C31.0112 24.2888 28.9219 23.1135 24.6779 22.5912C21.6744 22.1994 21.0868 21.4159 21.0868 19.9795C21.0868 18.6083 22.0661 17.6942 24.0902 17.6942C25.9184 17.6942 26.8978 18.2819 27.4201 19.7836C27.5507 20.11 27.8119 20.3059 28.1384 20.3059H29.7707C30.1624 20.3059 30.4889 19.9795 30.4889 19.5877V19.5224C30.0971 17.3025 28.2689 15.6049 25.9837 15.409V12.9932C25.9837 12.6014 25.6572 12.2749 25.2002 12.2097H23.5679C23.1761 12.2097 22.8497 12.5361 22.7844 12.9932V15.2784C19.7809 15.6702 17.8874 17.6942 17.8874 20.1753C17.8874 23.5053 19.9115 24.8111 24.0902 25.2682C26.8978 25.7905 27.8119 26.3781 27.8119 27.9452C27.8119 29.5122 26.4407 30.6221 24.482 30.6221C21.8703 30.6221 20.9562 29.5122 20.695 28.0104C20.5644 27.6187 20.3033 27.4228 19.9768 27.4228H18.2792C17.8874 27.4228 17.561 27.7493 17.561 28.141V28.2716C17.9527 30.7527 19.585 32.5809 22.8497 33.1033V35.5191C22.8497 35.9108 23.1761 36.2373 23.6332 36.3026H25.1349C25.5266 36.3026 25.8531 35.9761 25.9184 35.5191V33.1033C28.9872 32.6462 31.0112 30.5569 31.0112 27.8146Z" fill="white"/>
<path d="M19.2586 38.392C11.4235 35.5845 7.44068 26.9006 10.3136 19.1308C11.8153 14.952 15.1452 11.6874 19.2586 10.1857C19.6504 9.98981 19.8462 9.66335 19.8462 9.2063V7.83516C19.8462 7.44341 19.6504 7.11694 19.2586 7.05165C19.128 7.05165 18.9321 7.05165 18.8669 7.18224C9.33415 10.1857 4.11075 20.306 7.1142 29.8387C8.94239 35.4539 13.2517 39.7632 18.8669 41.5914C19.2586 41.7873 19.6504 41.5914 19.781 41.1996C19.9115 41.069 19.9115 41.0037 19.9115 40.8079V39.4367C19.9115 38.9797 19.5851 38.5879 19.2586 38.392ZM29.9013 7.11694C29.5095 6.92107 29.1178 7.11694 28.9872 7.5087C28.8566 7.63928 28.8566 7.70458 28.8566 7.90045V9.2716C28.8566 9.66335 29.1831 10.0551 29.4442 10.251C37.2793 13.0586 41.2622 21.7425 38.3893 29.5123C36.8876 33.691 33.5577 36.9556 29.4442 38.4573C29.0525 38.6532 28.8566 38.9797 28.8566 39.4367V40.8079C28.8566 41.1996 29.0525 41.5261 29.4442 41.5914C29.5748 41.5914 29.7707 41.5914 29.836 41.4608C39.3687 38.4573 44.5921 28.337 41.5886 18.8043C39.8257 13.1891 35.3859 8.94513 29.9013 7.11694Z" fill="white"/>
</svg>
