<svg width="49" height="49" viewBox="0 0 49 49" fill="none" xmlns="http://www.w3.org/2000/svg">
<path d="M48.7222 24.0278C48.7222 10.7576 37.9646 2.56377e-05 24.6944 2.62178e-05C11.4242 2.67979e-05 0.666624 10.7576 0.666625 24.0278C0.666626 37.298 11.4242 48.0556 24.6944 48.0556C37.9646 48.0556 48.7222 37.298 48.7222 24.0278Z" fill="#23292F"/>
<path d="M36.5845 10.1287H41.4161L31.2959 20.1836C27.6396 23.8399 21.6981 23.8399 18.0418 20.1836L7.92165 10.1287H12.8185L20.5229 17.7025C22.8733 19.9877 26.595 19.9877 28.9454 17.7025L36.5845 10.1287Z" fill="white"/>
<path d="M12.7529 38.0081H7.85608L18.0415 27.9533C21.6979 24.297 27.6393 24.297 31.2957 27.9533L41.4811 38.0081H36.6495L28.8799 30.3038C26.5294 28.0186 22.8078 28.0186 20.4573 30.3038L12.7529 38.0081Z" fill="white"/>
</svg>
