<svg width="49" height="49" viewBox="0 0 49 49" fill="none" xmlns="http://www.w3.org/2000/svg">
<path d="M24.9722 48.0556C38.2424 48.0556 49 37.298 49 24.0278C49 10.7576 38.2424 0 24.9722 0C11.7021 0 0.944458 10.7576 0.944458 24.0278C0.944458 37.298 11.7021 48.0556 24.9722 48.0556Z" fill="#F30504"/>
<path d="M34.4086 25.9194C34.4086 25.9847 34.1474 26.3112 33.8862 26.507C33.1027 27.0947 31.7315 27.617 30.2951 27.8782C29.5116 28.0088 28.6627 28.074 28.4669 27.9435C28.3363 27.8782 28.271 27.8129 28.3363 27.617C28.4669 27.2252 28.8586 26.7029 29.4463 26.3111C29.7727 26.1153 31.0133 25.3317 31.5357 25.0053C32.5151 24.4829 33.2333 24.1565 33.7557 24.0912C33.9515 24.0912 34.1474 24.0912 34.1474 24.0912C34.278 24.1565 34.3433 24.4177 34.4086 24.8094C34.4739 24.8747 34.4086 25.7235 34.4086 25.9194Z" fill="black"/>
<path d="M21.0887 27.7475C21.0235 27.8128 20.8929 27.878 20.697 27.9433C20.5011 27.9433 19.9134 27.9433 19.587 27.9433C18.4117 27.8127 17.1059 27.421 16.1918 26.9639C15.6694 26.7028 15.2777 26.4416 15.0165 26.1804L14.8859 25.9845V25.7887C14.8859 25.3969 14.8859 24.8093 14.8859 24.6134C14.8859 24.4175 14.9512 24.2869 15.0818 24.0911C15.147 24.0258 15.1471 24.0258 15.3429 24.0258C15.6041 24.0258 15.8 24.0911 16.1265 24.1564C16.8447 24.3522 17.8241 24.8746 19.13 25.6581C20.1746 26.311 20.5664 26.5722 20.8276 27.0292C21.0234 27.2904 21.154 27.6169 21.0887 27.7475Z" fill="black"/>
<path d="M29.1196 35.5827C29.1196 35.5827 29.0544 35.8439 28.9891 36.1704C28.9238 36.4968 28.8585 36.758 28.8585 36.758C28.7932 36.758 28.7279 36.758 28.6626 36.758H28.4667L28.2056 37.3456C28.075 37.6721 27.9444 37.9986 27.9444 37.9986L27.8791 38.0639L27.7485 37.868L27.6179 37.6721V36.1051H27.5526C27.4874 36.1051 26.7691 36.2357 26.4426 36.2357C25.2021 36.3663 23.9615 36.301 22.721 36.1704C22.5251 36.1704 22.3292 36.1051 22.3292 36.1051C22.3292 36.1051 22.3292 36.4968 22.3292 36.8886V37.6721L22.2639 37.8027C22.1986 37.868 22.1333 37.9333 22.1333 37.9333C22.1333 37.9333 22.068 37.868 21.9374 37.6068C21.8068 37.3457 21.6762 37.0192 21.6109 36.758L21.5457 36.5621H21.3498H21.1539L21.0886 36.3662C21.0886 36.2357 21.0234 36.1051 21.0234 35.9745V35.7786L20.8927 35.648C20.8274 35.5827 20.6969 35.5174 20.6969 35.5174L20.6315 35.4521V35.3869H21.3498H22.068V35.4521V35.5174H22.3292C22.4598 35.5174 22.9169 35.5174 23.3086 35.5174H24.0268L24.2226 35.2563L24.4186 34.9951H24.6797V34.4075V33.8198L24.3533 33.6893C23.3739 33.2322 22.7862 32.7751 22.525 32.1222C22.4598 31.9916 22.4598 31.9263 22.4598 31.404C22.4598 30.8164 22.4598 30.8164 22.525 30.6858C22.5903 30.4246 22.8515 30.1634 23.1127 30.0981C23.178 30.0981 23.4391 30.0981 24.8103 30.0981H26.3773L26.5733 30.1634C26.7691 30.294 26.8997 30.3593 26.965 30.4899C27.0956 30.6858 27.1608 30.8164 27.1608 31.1428C27.1608 31.6652 27.0955 32.0569 27.0955 32.2528C27.0303 32.514 26.8997 32.7099 26.7691 32.9057C26.5079 33.2975 25.9856 33.6239 25.5285 33.8198L25.3979 33.8851V34.4728V35.0604H25.5285H25.6591L25.855 35.3216L26.0509 35.5827H26.8344C27.2261 35.5827 27.6179 35.5827 27.6832 35.5827C27.7485 35.5827 27.7485 35.5827 27.8138 35.5174L27.8791 35.3869H28.532C28.9238 35.5827 29.1196 35.5827 29.1196 35.5827Z" fill="black"/>
<path d="M26.1163 37.215C25.9858 37.2803 25.9205 37.2803 25.9205 37.2803C25.9205 37.2803 25.8552 37.215 25.7246 37.1497L25.5941 37.0191L25.4634 37.215C25.137 37.6067 25.137 37.6067 25.0064 37.6067C24.8758 37.6067 24.8105 37.6067 24.6147 37.2803C24.4841 37.1497 24.4187 37.0191 24.4187 37.0191C24.4187 37.0191 24.3535 37.0191 24.2882 37.0191H24.1576L24.0923 37.1497L24.027 37.2803L23.8964 37.215C23.7658 37.1497 23.7005 37.1497 23.5699 37.0844L23.3741 37.0191V36.6926H24.8758H26.3775V36.8232C26.3775 37.0844 26.3775 37.0844 26.1163 37.215Z" fill="black"/>
<path d="M40.2195 30.3593C40.2195 30.3593 40.2195 30.294 40.2195 30.2287C38.8484 30.0981 34.9961 29.9675 31.405 32.971C31.405 32.971 30.2297 27.6823 24.8104 27.6823C19.3911 27.6823 17.367 32.971 17.367 32.971C14.2982 29.7063 10.2501 29.9675 8.81366 30.1634C8.81366 30.2287 8.81366 30.2287 8.81366 30.294C8.74837 31.1428 8.81371 31.5345 8.9443 31.9916C9.33605 33.6239 10.6419 35.3868 12.7312 37.0844C16.0612 39.9573 20.6317 41.9814 24.0269 42.2426C27.618 42.5037 32.9068 40.4144 36.4326 37.3456C36.9549 36.8232 37.4773 36.3662 37.9996 35.7786C38.3261 35.3868 38.8484 34.6686 38.8484 34.6686C38.8484 34.6686 38.9137 34.6686 38.8484 34.6033C38.8484 34.6033 38.8484 34.6033 38.8484 34.538C38.8484 34.4727 38.9137 34.4727 38.9137 34.4074C38.979 34.2768 39.3055 33.6892 39.3708 33.5586C39.6972 32.8404 39.8931 32.1875 40.0237 31.5345C40.2196 31.0775 40.2848 30.4898 40.2195 30.3593ZM26.1163 37.215C25.9857 37.2803 25.9204 37.2803 25.9204 37.2803C25.9204 37.2803 25.8551 37.215 25.7245 37.1497L25.594 37.0191L25.4633 37.215C25.1369 37.6068 25.1369 37.6068 25.0063 37.6068C24.8757 37.6068 24.8105 37.6068 24.6146 37.2803C24.484 37.1497 24.4187 37.0191 24.4187 37.0191C24.4187 37.0191 24.3534 37.0191 24.2881 37.0191H24.1575L24.0922 37.1497L24.0269 37.2803L23.8963 37.215C23.7657 37.1497 23.7004 37.1497 23.5698 37.0844L23.374 37.0191V36.6927H24.8757H26.3775V36.8233C26.3775 37.0844 26.3774 37.0844 26.1163 37.215ZM28.9239 36.2356C28.8586 36.5621 28.7933 36.8233 28.7933 36.8233C28.728 36.8233 28.6627 36.8233 28.5974 36.8233H28.4015L28.1403 37.4109C28.0098 37.7374 27.8792 38.0638 27.8792 38.0638L27.8139 38.1291L27.6833 37.9332L27.5528 37.7374V36.1703H27.4874C27.4221 36.1703 26.7039 36.3009 26.3775 36.3009C25.1369 36.4315 23.8964 36.3662 22.6558 36.2356C22.4599 36.2356 22.264 36.1703 22.264 36.1703C22.264 36.1703 22.264 36.5621 22.264 36.9538V37.7374L22.1987 37.8679C22.1334 37.9332 22.0681 37.9985 22.0681 37.9985C22.0681 37.9985 22.0028 37.9332 21.8722 37.6721C21.7417 37.4109 21.6111 37.0844 21.5458 36.8233L21.4805 36.6274H21.2846H21.0888L21.0235 36.4315C21.0235 36.3009 20.9581 36.1703 20.9581 36.0397V35.8439L20.8276 35.7133C20.7623 35.648 20.6317 35.5827 20.6317 35.5827L20.5664 35.5174V35.4521H21.2846H22.0029V35.5174V35.5827H22.264C22.3946 35.5827 22.8516 35.5827 23.2434 35.5827H23.9617L24.1575 35.3215L24.3534 35.0603H24.6146V34.4727V33.8851L24.2881 33.7545C23.3087 33.2974 22.7211 32.8404 22.4599 32.1875C22.3946 32.0569 22.3946 31.9916 22.3946 31.4692C22.3946 30.8816 22.3946 30.8816 22.4599 30.751C22.5252 30.4899 22.7864 30.2287 23.0475 30.1634C23.1128 30.1634 23.374 30.1634 24.7451 30.1634H26.3122L26.508 30.2287C26.7039 30.3593 26.8345 30.4245 26.8998 30.5551C27.0304 30.751 27.0957 30.8816 27.0957 31.2081C27.0957 31.7304 27.0304 32.1222 27.0304 32.318C26.9651 32.5792 26.8345 32.7751 26.7039 32.971C26.4428 33.3627 25.9204 33.6892 25.4633 33.8851L25.3328 33.9504V34.538V35.1256H25.4633H25.594L25.7898 35.3868L25.9857 35.648H26.7692C27.161 35.648 27.5528 35.648 27.618 35.648C27.6833 35.648 27.6833 35.648 27.7486 35.5827L27.8139 35.4521H28.4668C28.9891 35.4521 29.1197 35.4521 29.1197 35.4521C29.1197 35.648 29.0545 35.9092 28.9239 36.2356Z" fill="white"/>
<path d="M40.1541 29.7716C40.1541 29.5104 40.0888 29.184 40.0888 28.9881C39.8276 26.4417 39.1747 24.3523 37.9341 22.1323C37.8688 22.067 37.8688 21.9365 37.8036 21.8712V21.8059C37.9994 21.2835 38.7176 19.0636 39.24 16.5824C40.0235 13.1872 40.4806 9.20433 38.9789 7.96377C38.9789 7.96377 36.3671 7.7679 32.9066 11.1631C31.9925 12.0772 31.0784 13.1219 30.3602 14.2319L30.099 14.1666C28.7278 13.7095 27.2261 13.4484 25.7896 13.3178C25.3326 13.2525 23.7003 13.2525 23.1779 13.3178C21.5456 13.4484 20.305 13.6442 18.9339 14.1666C18.8686 14.1666 18.8033 14.2319 18.8033 14.2319C18.0198 13.1219 17.1057 12.1425 16.1263 11.2284C12.5352 7.83318 9.79289 8.02906 9.79289 8.02906C8.22586 9.26963 8.74825 13.4484 9.59706 16.9742C10.1194 19.3247 10.7723 21.3488 11.0335 22.067C11.0335 22.1323 10.9682 22.1323 10.9682 22.1976C9.66234 24.8746 8.9441 27.421 8.74822 30.1633C10.25 29.9675 14.2981 29.7063 17.3016 32.9709C17.3016 32.9709 19.3257 27.6822 24.745 27.6822C30.1643 27.6822 31.3395 32.9709 31.3395 32.9709C34.9307 30.0328 38.7829 30.0981 40.1541 30.2286C40.2194 30.0981 40.2194 29.9675 40.1541 29.7716ZM12.1434 19.9124C12.1434 19.9124 10.0541 14.6236 10.5765 11.6202C10.6417 11.0978 10.8376 10.6408 11.0988 10.3143C11.0988 10.3143 13.5146 10.5755 17.3669 14.8195C17.3669 14.8195 16.6486 15.146 15.6693 15.9295C14.5593 16.7783 13.1881 18.0842 12.1434 19.9124ZM21.0886 27.7475C21.0233 27.8128 20.8927 27.8781 20.6969 27.9434C20.501 27.9434 19.9133 27.9434 19.5868 27.9434C18.4116 27.8128 17.1057 27.421 16.1916 26.964C15.6693 26.7028 15.2775 26.4417 15.0163 26.1805L14.8858 25.9846V25.7887C14.8858 25.397 14.8858 24.8093 14.8858 24.6134C14.8858 24.4176 14.951 24.287 15.0816 24.0911C15.1469 24.0258 15.1469 24.0258 15.3428 24.0258C15.604 24.0258 15.7999 24.0911 16.1263 24.1564C16.8446 24.3523 17.8239 24.8746 19.1298 25.6581C20.1745 26.3111 20.5662 26.5722 20.8274 27.0293C21.0233 27.2905 21.1539 27.6169 21.0886 27.7475ZM34.4084 25.9193C34.4084 25.9846 34.1472 26.3111 33.886 26.507C33.1025 27.0946 31.7313 27.6169 30.2949 27.8781C29.5114 28.0087 28.6625 28.074 28.4666 27.9434C28.3361 27.8781 28.2708 27.8128 28.3361 27.6169C28.4667 27.2252 28.8584 26.7028 29.446 26.3111C29.7725 26.1152 31.0131 25.3317 31.5355 25.0052C32.5148 24.4829 33.2331 24.1564 33.7554 24.0911C33.9513 24.0911 34.1472 24.0911 34.1472 24.0911C34.2778 24.1564 34.3431 24.4176 34.4084 24.8093C34.4736 24.8746 34.4084 25.7234 34.4084 25.9193ZM33.4942 15.9948C32.5148 15.2113 31.7966 14.8848 31.7966 14.8848C35.5183 10.5755 37.8688 10.3796 37.8688 10.3796C38.13 10.7061 38.2606 11.1631 38.3912 11.6855C38.9135 14.6889 36.8894 19.9777 36.8894 19.9777C35.9753 18.4106 34.8654 17.0395 33.4942 15.9948Z" fill="#FFA409"/>
<path d="M38.326 11.6201C37.8689 11.5548 35.7795 11.5549 33.429 15.9948C32.4496 15.2113 31.7967 14.8848 31.7967 14.8848C35.5184 10.5755 37.8689 10.3796 37.8689 10.3796C38.13 10.6407 38.2607 11.0978 38.326 11.6201Z" fill="#FF9300"/>
<path d="M36.8241 19.9124C35.9753 18.4106 34.8 17.0395 33.4289 15.9948C35.7794 11.5549 37.8688 11.5549 38.3259 11.6202C38.8482 14.6236 36.8241 19.9124 36.8241 19.9124Z" fill="#FF8300"/>
<path d="M17.3673 14.8848C17.3673 14.8848 16.6491 15.2113 15.6697 15.9948C13.2538 11.5549 11.0992 11.5549 10.6422 11.6202C10.7074 11.0978 10.9033 10.6408 11.1644 10.3143C11.0992 10.3143 13.515 10.5755 17.3673 14.8848Z" fill="#FF9300"/>
<path d="M15.6693 15.9949C14.6246 16.8437 13.2535 18.0842 12.2088 19.9124C12.2088 19.9124 10.1194 14.6237 10.6418 11.6202C11.0335 11.5549 13.1881 11.5549 15.6693 15.9949Z" fill="#FF8300"/>
<path d="M31.1438 22.8505C31.1438 22.8505 29.3156 22.9811 29.5768 21.5447C29.7727 20.1082 31.2091 19.9776 31.6009 20.0429C31.9926 20.1082 33.5596 20.6959 33.2985 21.8711C33.0373 23.0464 32.6455 22.8505 32.3843 22.9158C32.1232 22.9158 31.1438 22.8505 31.1438 22.8505Z" fill="white"/>
<path d="M17.8241 22.8505C17.8241 22.8505 15.9958 22.9811 16.257 21.5447C16.4529 20.1082 17.8893 19.9776 18.2811 20.0429C18.6728 20.1082 20.2398 20.6959 19.9787 21.8711C19.7175 23.0464 19.3258 22.8505 19.0646 22.9158C18.8035 22.9158 17.8241 22.8505 17.8241 22.8505Z" fill="white"/>
</svg>
