<svg width="49" height="49" viewBox="0 0 49 49" fill="none" xmlns="http://www.w3.org/2000/svg">
<path d="M24.1391 0C37.3936 0 48.1669 10.7733 48.1669 24.0278C48.1669 37.2822 37.3936 48.0556 24.1391 48.0556C10.8847 48.0556 0.111328 37.3475 0.111328 24.0278C0.111328 10.7733 10.8847 0 24.1391 0Z" fill="#F0B90B"/>
<path d="M17.9365 21.4813L21.5276 17.8249L22.3111 17.0414L24.1393 15.2132L30.3421 21.4813L33.9332 17.8249L24.1393 8.03094L14.2801 17.8249L17.9365 21.4813Z" fill="white"/>
<path d="M24.1362 20.428L20.5351 24.0292L24.1362 27.6303L27.7374 24.0292L24.1362 20.428Z" fill="white"/>
<path d="M30.3421 26.6395L24.1393 32.8423L21.9846 30.6224L21.5276 30.2306L17.9365 26.6395L14.2801 30.2306L24.1393 40.0246L33.9332 30.2306L30.3421 26.6395Z" fill="white"/>
<path d="M11.7202 20.4227L8.11908 24.0238L11.7202 27.625L15.3214 24.0238L11.7202 20.4227Z" fill="white"/>
<path d="M36.5333 20.4253L32.9322 24.0264L36.5333 27.6276L40.1345 24.0264L36.5333 20.4253Z" fill="white"/>
</svg>
