<svg width="49" height="49" viewBox="0 0 49 49" fill="none" xmlns="http://www.w3.org/2000/svg">
<path d="M47.3406 29.8396C44.1423 42.7039 31.0879 50.54 18.2293 47.3403C5.37068 44.1405 -2.52724 31.0803 0.736365 18.216C3.93469 5.35166 16.9891 -2.48447 29.8477 0.715286C42.7063 3.91504 50.5389 16.9753 47.3406 29.8396Z" fill="#F7931A"/>
<path d="M34.6125 20.6321C35.0694 17.4323 32.6543 15.7345 29.3255 14.5591L30.4351 10.2492L27.8242 9.5962L26.7799 13.8408C26.0619 13.6449 25.3439 13.5143 24.6912 13.3184L25.7355 9.07379L23.1246 8.42078L22.015 12.7306C21.4276 12.6 20.9054 12.4694 20.3179 12.3388L16.6627 11.4246L15.9447 14.2326C15.9447 14.2326 17.9029 14.6897 17.8376 14.6897C18.8819 14.9509 19.0778 15.6692 19.0778 16.1916L17.8376 21.1545L16.1405 28.0764C16.01 28.4029 15.6836 28.86 14.9004 28.7294C14.9004 28.7947 13.0075 28.2723 13.0075 28.2723L11.702 31.2762L15.1614 32.1251C15.8142 32.2557 16.4016 32.4516 17.0543 32.5822L15.9447 36.9574L18.5556 37.6104L19.6652 33.3005C20.3832 33.4964 21.1012 33.6923 21.7539 33.8229L20.6443 38.1328L23.2552 38.7858L24.3648 34.4106C28.8686 35.2595 32.2627 34.933 33.6334 30.8191C34.8083 27.554 33.5682 25.6603 31.2184 24.4195C32.9807 24.093 34.2861 22.9829 34.6125 20.6321ZM28.6075 29.0559C27.8242 32.321 22.2761 30.5578 20.5138 30.1007L21.9497 24.2889C23.7121 24.746 29.456 25.6603 28.6075 29.0559ZM29.3907 20.5668C28.6728 23.5706 24.0384 22.0034 22.5372 21.6769L23.8426 16.3875C25.4092 16.7793 30.174 17.4323 29.3907 20.5668Z" fill="white"/>
</svg>
