<svg width="49" height="49" viewBox="0 0 49 49" fill="none" xmlns="http://www.w3.org/2000/svg">
<path d="M48.3332 24.0278C48.3332 10.7576 37.5756 -1.02762e-05 24.3055 -9.69612e-06C11.0353 -9.11606e-06 0.277678 10.7576 0.277678 24.0278C0.277679 37.2979 11.0353 48.0555 24.3055 48.0555C37.5756 48.0555 48.3332 37.2979 48.3332 24.0278Z" fill="#627EEA"/>
<path d="M25.0319 5.99805V19.3175L36.3273 24.345L25.0319 5.99805Z" fill="white" fill-opacity="0.602"/>
<path d="M25.0319 5.99805L13.7365 24.345L25.0319 19.3175V5.99805Z" fill="white"/>
<path d="M25.0319 33.0289V42.1044L36.3273 26.4997L25.0319 33.0289Z" fill="white" fill-opacity="0.602"/>
<path d="M25.032 42.039V32.9635L13.7365 26.4343L25.032 42.039Z" fill="white"/>
<path d="M25.0319 30.8742L36.3273 24.345L25.0319 19.3176V30.8742Z" fill="white" fill-opacity="0.2"/>
<path d="M13.8018 24.345L25.0973 30.8742V19.3176L13.8018 24.345Z" fill="white" fill-opacity="0.602"/>
</svg>
