<svg width="49" height="49" viewBox="0 0 49 49" fill="none" xmlns="http://www.w3.org/2000/svg">
<path d="M24.861 0C38.1155 0 48.8888 10.7733 48.8888 24.0278C48.8888 37.2822 38.1155 48.0556 24.861 48.0556C11.6066 48.0556 0.833252 37.2822 0.833252 24.0278C0.833252 10.7733 11.6066 0 24.861 0Z" fill="#53AE94"/>
<path d="M27.8644 20.8285V17.2374H36.026V11.8181H13.7612V17.2374H21.9228V20.8285C15.2629 21.1549 10.3006 22.4608 10.3006 24.0278C10.3006 25.5949 15.3282 26.9007 21.9228 27.2272V38.6534H27.8644V27.2272C34.5243 26.9007 39.4865 25.5949 39.4865 24.0278C39.4865 22.4608 34.5243 21.1549 27.8644 20.8285ZM27.8644 26.2478C27.6685 26.2478 26.8197 26.3131 24.9262 26.3131C23.4245 26.3131 22.3145 26.2478 21.9228 26.2478C16.0464 25.9866 11.6718 24.9419 11.6718 23.7667C11.6718 22.5914 16.0464 21.5467 21.9228 21.2855V25.2684C22.3145 25.2684 23.4245 25.3337 24.9262 25.3337C26.7544 25.3337 27.6685 25.2684 27.8644 25.2684V21.2855C33.7408 21.5467 38.1154 22.5914 38.1154 23.7667C38.1154 24.9419 33.7408 25.9866 27.8644 26.2478Z" fill="white"/>
</svg>
