<svg width="200" height="30" viewBox="0 0 200 30" fill="none" xmlns="http://www.w3.org/2000/svg">
<g clip-path="url(#clip0_1_677)">
<path d="M46.1749 17.5951H46.1349L43.7999 8.18005H40.9899L38.6199 17.4801H38.5799L36.4199 8.18005H33.4149L37.0299 21.8401H40.0699L42.3449 12.5401H42.3849L44.6999 21.8401H47.6849L51.3599 8.18005H48.4149L46.1749 17.5951ZM60.5199 12.8051C60.2549 12.4551 59.8849 12.1801 59.4199 11.9801C58.9549 11.7851 58.3599 11.6851 57.6299 11.6851C57.1199 11.6851 56.5949 11.8151 56.0599 12.0751C55.5249 12.3351 55.0849 12.7551 54.7399 13.3301H54.6849V8.18005H51.9699V21.8401H54.6849V16.6601C54.6849 15.6501 54.8499 14.9301 55.1849 14.4901C55.5149 14.0501 56.0499 13.8301 56.7899 13.8301C57.4399 13.8301 57.8949 14.0301 58.1499 14.4351C58.4049 14.8351 58.5349 15.4451 58.5349 16.2601V21.8451H61.2499V15.7601C61.2499 15.1501 61.1949 14.5901 61.0849 14.0851C60.9749 13.5801 60.7899 13.1551 60.5199 12.8051ZM71.7099 19.6451V14.4951C71.7099 13.8951 71.5749 13.4151 71.3099 13.0501C71.0449 12.6851 70.6999 12.4051 70.2799 12.2001C69.8599 11.9951 69.3949 11.8601 68.8849 11.7901C68.3749 11.7201 67.8699 11.6851 67.3749 11.6851C66.8249 11.6851 66.2799 11.7401 65.7399 11.8501C65.1949 11.9601 64.7099 12.1401 64.2749 12.3951C63.8399 12.6501 63.4849 12.9901 63.2049 13.4101C62.9249 13.8301 62.7649 14.3601 62.7249 15.0001H65.4399C65.4899 14.4651 65.6699 14.0801 65.9749 13.8501C66.2799 13.6201 66.6999 13.5051 67.2349 13.5051C67.4749 13.5051 67.7049 13.5201 67.9149 13.5551C68.1249 13.5851 68.3099 13.6501 68.4699 13.7451C68.6299 13.8401 68.7549 13.9751 68.8499 14.1451C68.9449 14.3151 68.9949 14.5501 68.9949 14.8451C69.0099 15.1251 68.9249 15.3401 68.7449 15.4851C68.5649 15.6301 68.3249 15.7451 68.0199 15.8201C67.7149 15.8951 67.3649 15.9551 66.9699 15.9901C66.5749 16.0301 66.1749 16.0801 65.7649 16.1451C65.3549 16.2101 64.9499 16.2951 64.5499 16.4051C64.1499 16.5151 63.7899 16.6751 63.4799 16.8901C63.1649 17.1101 62.9099 17.4001 62.7149 17.7601C62.5199 18.1251 62.4199 18.5851 62.4199 19.1451C62.4199 19.6551 62.5049 20.0951 62.6799 20.4651C62.8499 20.8351 63.0899 21.1401 63.3999 21.3851C63.7049 21.6251 64.0649 21.8051 64.4699 21.9201C64.8799 22.0351 65.3199 22.0901 65.7899 22.0901C66.3999 22.0901 66.9999 22.0001 67.5849 21.8251C68.1699 21.6451 68.6849 21.3351 69.1149 20.8851C69.1299 21.0501 69.1499 21.2151 69.1799 21.3751C69.2099 21.5351 69.2549 21.6901 69.3049 21.8451H72.0599C71.9349 21.6401 71.8449 21.3351 71.7899 20.9251C71.7349 20.5201 71.7099 20.0901 71.7099 19.6451ZM68.9949 18.0151C68.9949 18.1701 68.9799 18.3751 68.9449 18.6301C68.9149 18.8851 68.8249 19.1351 68.6849 19.3851C68.5449 19.6351 68.3249 19.8501 68.0349 20.0251C67.7399 20.2051 67.3249 20.2951 66.7899 20.2951C66.5749 20.2951 66.3649 20.2751 66.1599 20.2351C65.9549 20.1951 65.7799 20.1301 65.6249 20.0351C65.4699 19.9401 65.3499 19.8101 65.2599 19.6451C65.1699 19.4801 65.1249 19.2751 65.1249 19.0351C65.1249 18.7801 65.1699 18.5701 65.2599 18.4051C65.3499 18.2401 65.4699 18.1001 65.6149 17.9951C65.7599 17.8851 65.9349 17.8001 66.1299 17.7351C66.3299 17.6701 66.5299 17.6201 66.7349 17.5801C66.9499 17.5401 67.1699 17.5101 67.3849 17.4851C67.6049 17.4601 67.8099 17.4251 68.0049 17.3901C68.2049 17.3501 68.3899 17.3051 68.5599 17.2451C68.7299 17.1901 68.8749 17.1101 68.9899 17.0051V18.0151H68.9949ZM76.7799 8.98505H74.0649V11.9501H72.4199V13.7651H74.0649V19.6001C74.0649 20.1001 74.1499 20.5001 74.3149 20.8051C74.4799 21.1101 74.7049 21.3501 74.9949 21.5151C75.2799 21.6801 75.6149 21.7901 75.9899 21.8501C76.3649 21.9051 76.7649 21.9351 77.1849 21.9351C77.4549 21.9351 77.7249 21.9301 78.0099 21.9151C78.2899 21.9001 78.5449 21.8751 78.7749 21.8401V19.7351C78.6449 19.7601 78.5149 19.7801 78.3749 19.7901C78.2349 19.8051 78.0899 19.8101 77.9349 19.8101C77.4749 19.8101 77.1699 19.7351 77.0149 19.5801C76.8649 19.4251 76.7849 19.1201 76.7849 18.6601V13.7601H78.7749V11.9501H76.7849V8.98505H76.7799ZM88.0099 17.5101C87.8299 17.2001 87.5949 16.9351 87.2999 16.7251C87.0049 16.5151 86.6699 16.3451 86.2949 16.2201C85.9199 16.0951 85.5349 15.9851 85.1349 15.8951C84.7549 15.8051 84.3749 15.7201 84.0049 15.6451C83.6349 15.5701 83.3049 15.4801 83.0199 15.3851C82.7349 15.2901 82.4999 15.1651 82.3249 15.0101C82.1449 14.8551 82.0549 14.6601 82.0549 14.4151C82.0549 14.2101 82.1049 14.0501 82.2049 13.9251C82.3049 13.8051 82.4299 13.7101 82.5799 13.6451C82.7249 13.5801 82.8899 13.5401 83.0649 13.5201C83.2449 13.5001 83.4099 13.4901 83.5599 13.4901C84.0449 13.4901 84.4649 13.5801 84.8249 13.7651C85.1799 13.9501 85.3799 14.3051 85.4149 14.8251H87.9949C87.9449 14.2151 87.7899 13.7051 87.5249 13.3051C87.2649 12.9051 86.9349 12.5801 86.5399 12.3401C86.1449 12.1001 85.6949 11.9251 85.1899 11.8251C84.6849 11.7251 84.1649 11.6701 83.6299 11.6701C83.0949 11.6701 82.5699 11.7201 82.0599 11.8151C81.5499 11.9101 81.0899 12.0801 80.6799 12.3151C80.2699 12.5501 79.9449 12.8701 79.6949 13.2801C79.4449 13.6901 79.3199 14.2101 79.3199 14.8501C79.3199 15.2851 79.4099 15.6501 79.5899 15.9501C79.7649 16.2501 80.0049 16.5001 80.2949 16.6951C80.5899 16.8951 80.9249 17.0551 81.2999 17.1751C81.6749 17.2951 82.0599 17.4001 82.4549 17.4901C83.4249 17.6951 84.1799 17.9001 84.7249 18.1051C85.2649 18.3101 85.5399 18.6151 85.5399 19.0251C85.5399 19.2651 85.4849 19.4651 85.3699 19.6251C85.2549 19.7851 85.1099 19.9101 84.9399 20.0101C84.7649 20.1051 84.5749 20.1751 84.3649 20.2201C84.1549 20.2651 83.9549 20.2901 83.7599 20.2901C83.4899 20.2901 83.2349 20.2601 82.9849 20.1951C82.7349 20.1301 82.5149 20.0301 82.3249 19.9001C82.1349 19.7651 81.9749 19.5951 81.8549 19.3851C81.7349 19.1751 81.6749 18.9251 81.6749 18.6301H79.0949C79.1199 19.2951 79.2699 19.8451 79.5449 20.2851C79.8199 20.7251 80.1699 21.0801 80.5949 21.3451C81.0199 21.6101 81.5099 21.8051 82.0599 21.9201C82.6049 22.0351 83.1699 22.0901 83.7399 22.0901C84.2999 22.0901 84.8549 22.0351 85.3949 21.9301C85.9349 21.8201 86.4199 21.6351 86.8399 21.3651C87.2599 21.1001 87.5999 20.7451 87.8649 20.3051C88.1249 19.8651 88.2549 19.3201 88.2549 18.6701C88.2749 18.2101 88.1849 17.8251 88.0099 17.5101ZM93.3999 8.18005L88.2349 21.8401H91.2549L92.3249 18.8001H97.4349L98.4649 21.8401H101.585L96.4799 8.18005H93.3999ZM93.1149 16.5651L94.8949 11.5501H94.9349L96.6549 16.5651H93.1149ZM110.98 13.2901C110.61 12.8051 110.145 12.4151 109.585 12.1251C109.025 11.8301 108.355 11.6851 107.575 11.6851C106.96 11.6851 106.4 11.8051 105.89 12.0501C105.38 12.2951 104.96 12.6801 104.63 13.2201H104.59V11.9501H102.005V25.3051H104.725V20.6151H104.76C105.09 21.1001 105.515 21.4651 106.035 21.7151C106.55 21.9651 107.115 22.0901 107.725 22.0901C108.45 22.0901 109.085 21.9501 109.63 21.6701C110.17 21.3901 110.625 21.0151 110.99 20.5401C111.355 20.0701 111.625 19.5251 111.805 18.9151C111.98 18.3001 112.075 17.6651 112.075 17.0001C112.075 16.3001 111.985 15.6251 111.805 14.9801C111.625 14.3401 111.35 13.7751 110.98 13.2901ZM109.24 18.0951C109.165 18.4801 109.03 18.8101 108.845 19.1001C108.66 19.3851 108.42 19.6201 108.115 19.8001C107.815 19.9801 107.445 20.0701 106.995 20.0701C106.56 20.0701 106.195 19.9801 105.885 19.8001C105.58 19.6251 105.335 19.3901 105.15 19.1001C104.965 18.8151 104.83 18.4801 104.75 18.0951C104.665 17.7151 104.625 17.3251 104.625 16.9301C104.625 16.5201 104.66 16.1251 104.74 15.7451C104.82 15.3601 104.95 15.0251 105.135 14.7301C105.32 14.4351 105.56 14.2001 105.86 14.0151C106.16 13.8301 106.53 13.7351 106.98 13.7351C107.415 13.7351 107.78 13.8301 108.08 14.0151C108.38 14.2001 108.625 14.4401 108.815 14.7401C109.005 15.0401 109.145 15.3801 109.225 15.7651C109.31 16.1501 109.35 16.5351 109.35 16.9351C109.355 17.3201 109.32 17.7101 109.24 18.0951ZM122.63 14.9851C122.45 14.3401 122.175 13.7751 121.805 13.2901C121.435 12.8051 120.97 12.4151 120.41 12.1251C119.85 11.8301 119.18 11.6851 118.4 11.6851C117.79 11.6851 117.225 11.8051 116.715 12.0501C116.205 12.2951 115.785 12.6801 115.45 13.2201H115.415V11.9501H112.83V25.3051H115.545V20.6151H115.585C115.915 21.1001 116.34 21.4651 116.855 21.7151C117.37 21.9651 117.935 22.0901 118.55 22.0901C119.275 22.0901 119.91 21.9501 120.455 21.6701C120.995 21.3901 121.45 21.0151 121.815 20.5401C122.18 20.0701 122.45 19.5251 122.63 18.9151C122.81 18.3001 122.9 17.6651 122.9 17.0001C122.9 16.3001 122.81 15.6301 122.63 14.9851ZM120.065 18.0951C119.99 18.4801 119.86 18.8101 119.675 19.1001C119.49 19.3851 119.245 19.6201 118.945 19.8001C118.645 19.9801 118.275 20.0701 117.825 20.0701C117.39 20.0701 117.02 19.9801 116.715 19.8001C116.41 19.6251 116.165 19.3901 115.98 19.1001C115.795 18.8151 115.66 18.4801 115.58 18.0951C115.495 17.7151 115.455 17.3251 115.455 16.9301C115.455 16.5201 115.495 16.1251 115.57 15.7451C115.645 15.3601 115.775 15.0251 115.96 14.7301C116.145 14.4351 116.385 14.2001 116.685 14.0151C116.985 13.8301 117.355 13.7351 117.805 13.7351C118.24 13.7351 118.605 13.8301 118.905 14.0151C119.205 14.2001 119.45 14.4401 119.64 14.7401C119.83 15.0401 119.97 15.3801 120.05 15.7651C120.135 16.1501 120.175 16.5351 120.175 16.9351C120.18 17.3201 120.145 17.7101 120.065 18.0951Z" fill="white"/>
<path d="M28.92 14.3601C28.785 10.6801 27.255 7.26505 24.6 4.72005C22.005 2.23505 18.535 0.820054 14.94 0.805054C14.915 0.805054 14.895 0.805054 14.87 0.805054C10.955 0.805054 7.29996 2.38505 4.62496 5.21505C2.04496 7.95005 0.684957 11.5201 0.789957 15.2801C0.854957 17.5001 1.44996 19.6851 2.50996 21.6301L1.26496 29.0801C1.25496 29.1451 1.30996 29.2051 1.36996 29.2051C1.37496 29.2051 1.38496 29.2051 1.38996 29.2051L8.75496 27.5651C10.65 28.4751 12.74 28.9551 14.855 28.9551C14.99 28.9551 15.125 28.9551 15.255 28.9501C19.175 28.8401 22.805 27.1401 25.41 24.1851C27.8 21.4801 29.05 17.9501 28.92 14.3601ZM15.19 26.5001C15.08 26.5051 14.97 26.5051 14.855 26.5051C12.99 26.5051 11.145 26.0551 9.49496 25.2001L9.11996 25.0001L4.11996 26.1801L5.03996 21.1251L4.82496 20.7601C3.83996 19.0801 3.28496 17.1601 3.22996 15.2051C3.04996 8.79505 8.11496 3.43005 14.525 3.25005C14.64 3.24505 14.75 3.24505 14.865 3.24505C21.125 3.24505 26.305 8.24505 26.485 14.5401C26.67 20.9501 21.605 26.3151 15.19 26.5001Z" fill="white"/>
<path d="M9.96995 8.07506C9.73495 8.07506 9.36495 8.16006 9.04495 8.49006C8.70995 8.83506 7.76995 9.66006 7.71995 11.4001C7.66495 13.1401 8.87995 14.8601 9.04995 15.1001C9.21995 15.3401 11.375 19.0951 14.92 20.6201C17.005 21.5151 17.92 21.6701 18.51 21.6701C18.755 21.6701 18.9399 21.6451 19.1299 21.6301C19.7799 21.5901 21.245 20.8401 21.565 20.0251C21.885 19.2101 21.905 18.5001 21.825 18.3501C21.74 18.2001 21.51 18.1051 21.16 17.9151C20.8099 17.7251 19.1049 16.8201 18.785 16.6901C18.6449 16.6351 18.52 16.5901 18.405 16.5901C18.26 16.5901 18.13 16.6551 17.985 16.8401C17.705 17.1951 17.045 17.9701 16.825 18.1901C16.71 18.3051 16.59 18.3701 16.44 18.3701C16.33 18.3701 16.205 18.3351 16.055 18.2651C15.635 18.0701 14.5849 17.6601 13.275 16.4151C12.255 15.4451 11.58 14.2651 11.385 13.9051C11.19 13.5451 11.38 13.3601 11.56 13.1901C11.725 13.0351 11.925 12.7901 12.11 12.5851C12.295 12.3851 12.3549 12.2401 12.4799 12.0051C12.6049 11.7751 12.55 11.5651 12.47 11.3851C12.385 11.2051 11.755 9.43506 11.46 8.73006C11.215 8.13506 10.935 8.11506 10.685 8.09506C10.48 8.08006 10.245 8.07506 10.01 8.06506C9.98995 8.07506 9.97995 8.07506 9.96995 8.07506Z" fill="white"/>
<path d="M133.19 8.18506C133.485 8.18506 133.8 8.19006 134.135 8.19506C134.475 8.20006 134.81 8.22006 135.14 8.25006C135.47 8.28006 135.78 8.33006 136.07 8.39506C136.355 8.46006 136.605 8.55506 136.805 8.68006C137.25 8.95006 137.63 9.32006 137.945 9.79006C138.255 10.2601 138.415 10.8401 138.415 11.5301C138.415 12.2551 138.24 12.8851 137.89 13.4151C137.54 13.9451 137.04 14.3351 136.39 14.5901V14.6301C137.23 14.8101 137.875 15.1901 138.325 15.7801C138.77 16.3651 138.995 17.0801 138.995 17.9251C138.995 18.4251 138.905 18.9101 138.725 19.3801C138.545 19.8501 138.28 20.2701 137.93 20.6351C137.58 21.0001 137.145 21.2901 136.63 21.5151C136.115 21.7401 135.515 21.8501 134.84 21.8501H128.24V8.18506H133.19ZM133.685 14.0551C134.72 14.0551 135.46 13.8751 135.915 13.5101C136.37 13.1451 136.595 12.6001 136.595 11.8751C136.595 11.3901 136.52 11.0101 136.365 10.7251C136.21 10.4451 136 10.2301 135.735 10.0751C135.465 9.92006 135.155 9.82506 134.805 9.78006C134.455 9.73506 134.08 9.71506 133.685 9.71506H130.05V14.0601H133.685V14.0551ZM134.605 20.3151C135.41 20.3151 136.035 20.1001 136.49 19.6651C136.94 19.2301 137.17 18.6301 137.17 17.8651C137.17 17.4201 137.085 17.0501 136.92 16.7551C136.755 16.4601 136.535 16.2301 136.26 16.0551C135.985 15.8851 135.67 15.7601 135.315 15.6901C134.96 15.6201 134.59 15.5851 134.205 15.5851H130.055V20.3101H134.605V20.3151Z" fill="url(#paint0_linear_1_677)"/>
<path d="M147.06 21.8451V20.2751H147.02C146.675 20.8851 146.235 21.3351 145.7 21.6251C145.165 21.9101 144.535 22.0551 143.805 22.0551C143.155 22.0551 142.61 21.9701 142.18 21.7951C141.745 21.6251 141.395 21.3751 141.125 21.0601C140.855 20.7401 140.67 20.3601 140.56 19.9201C140.45 19.4801 140.395 18.9901 140.395 18.4551V11.9501H142.02V18.6501C142.02 19.2601 142.2 19.7451 142.555 20.1051C142.91 20.4601 143.405 20.6401 144.03 20.6401C144.525 20.6401 144.96 20.5651 145.32 20.4101C145.685 20.2551 145.985 20.0401 146.23 19.7601C146.47 19.4801 146.655 19.1501 146.775 18.7751C146.895 18.4001 146.955 17.9901 146.955 17.5401V11.9501H148.58V21.8401H147.06V21.8451Z" fill="url(#paint1_linear_1_677)"/>
<path d="M151.69 19.6351C151.845 19.8851 152.045 20.0801 152.295 20.2301C152.545 20.3751 152.825 20.4801 153.135 20.5451C153.45 20.6101 153.77 20.6401 154.1 20.6401C154.355 20.6401 154.625 20.6201 154.905 20.5851C155.185 20.5451 155.445 20.4751 155.68 20.3751C155.915 20.2751 156.11 20.1251 156.265 19.9251C156.42 19.7251 156.495 19.4751 156.495 19.1701C156.495 18.7501 156.335 18.4301 156.015 18.2151C155.695 18.0001 155.3 17.8251 154.82 17.6901C154.34 17.5551 153.82 17.4351 153.26 17.3251C152.7 17.2151 152.18 17.0651 151.7 16.8651C151.22 16.6651 150.825 16.3901 150.505 16.0351C150.185 15.6801 150.025 15.1801 150.025 14.5451C150.025 14.0501 150.135 13.6201 150.36 13.2651C150.585 12.9101 150.87 12.6201 151.22 12.3951C151.57 12.1701 151.965 12.0051 152.405 11.8951C152.845 11.7851 153.28 11.7301 153.715 11.7301C154.275 11.7301 154.795 11.7801 155.265 11.8751C155.735 11.9701 156.155 12.1351 156.52 12.3701C156.885 12.6051 157.175 12.9251 157.39 13.3251C157.605 13.7251 157.735 14.2301 157.775 14.8251H156.15C156.125 14.5051 156.04 14.2401 155.9 14.0301C155.76 13.8201 155.58 13.6501 155.365 13.5251C155.15 13.4001 154.91 13.3051 154.645 13.2501C154.385 13.1951 154.12 13.1651 153.85 13.1651C153.605 13.1651 153.36 13.1851 153.115 13.2201C152.865 13.2601 152.64 13.3251 152.435 13.4201C152.23 13.5151 152.065 13.6451 151.935 13.8051C151.81 13.9651 151.745 14.1701 151.745 14.4251C151.745 14.7051 151.845 14.9401 152.04 15.1251C152.24 15.3101 152.49 15.4651 152.795 15.5851C153.1 15.7051 153.445 15.8101 153.83 15.8901C154.215 15.9751 154.595 16.0601 154.98 16.1501C155.39 16.2401 155.785 16.3501 156.175 16.4751C156.565 16.6051 156.91 16.7701 157.21 16.9801C157.51 17.1901 157.75 17.4551 157.935 17.7751C158.12 18.0951 158.21 18.4901 158.21 18.9601C158.21 19.5601 158.085 20.0551 157.835 20.4501C157.585 20.8451 157.26 21.1651 156.86 21.4051C156.46 21.6501 156.005 21.8151 155.5 21.9101C154.995 22.0051 154.495 22.0551 154 22.0551C153.45 22.0551 152.93 21.9951 152.43 21.8851C151.93 21.7701 151.49 21.5801 151.11 21.3201C150.725 21.0601 150.42 20.7151 150.19 20.2851C149.96 19.8601 149.835 19.3401 149.805 18.7251H151.43C151.455 19.0851 151.535 19.3851 151.69 19.6351Z" fill="url(#paint2_linear_1_677)"/>
<path d="M159.475 10.1751V8.18506H161.1V10.1751H159.475ZM161.1 11.9501V21.8401H159.475V11.9501H161.1Z" fill="url(#paint3_linear_1_677)"/>
<path d="M164.455 11.9501V13.5201H164.495C165.17 12.3201 166.24 11.7201 167.71 11.7201C168.36 11.7201 168.905 11.8101 169.335 11.9901C169.77 12.1701 170.12 12.4151 170.385 12.7351C170.655 13.0551 170.84 13.4351 170.95 13.8751C171.06 14.3151 171.115 14.8051 171.115 15.3401V21.8451H169.49V15.1451C169.49 14.5351 169.31 14.0501 168.955 13.6901C168.6 13.3351 168.105 13.1551 167.48 13.1551C166.98 13.1551 166.55 13.2301 166.19 13.3851C165.825 13.5401 165.525 13.7551 165.28 14.0351C165.035 14.3151 164.855 14.6451 164.735 15.0201C164.615 15.3951 164.555 15.8101 164.555 16.2551V21.8401H162.93V11.9501H164.455Z" fill="url(#paint4_linear_1_677)"/>
<path d="M179.89 21.2151C179.15 21.7751 178.22 22.0551 177.095 22.0551C176.305 22.0551 175.62 21.9251 175.04 21.6701C174.46 21.4151 173.97 21.0601 173.575 20.6001C173.18 20.1401 172.885 19.5901 172.685 18.9551C172.485 18.3151 172.375 17.6201 172.35 16.8701C172.35 16.1151 172.465 15.4301 172.695 14.8051C172.925 14.1801 173.245 13.6401 173.66 13.1801C174.075 12.7201 174.565 12.3651 175.135 12.1101C175.705 11.8551 176.325 11.7251 177 11.7251C177.88 11.7251 178.61 11.9051 179.19 12.2701C179.77 12.6351 180.235 13.0951 180.585 13.6551C180.935 14.2151 181.18 14.8301 181.31 15.4901C181.445 16.1551 181.5 16.7851 181.475 17.3851H174.07C174.055 17.8201 174.11 18.2301 174.225 18.6201C174.34 19.0101 174.525 19.3551 174.78 19.6551C175.035 19.9551 175.36 20.1951 175.755 20.3701C176.15 20.5501 176.615 20.6401 177.15 20.6401C177.84 20.6401 178.405 20.4801 178.845 20.1601C179.285 19.8401 179.575 19.3551 179.715 18.7051H181.325C181.105 19.8151 180.63 20.6501 179.89 21.2151ZM179.495 14.8601C179.35 14.5151 179.15 14.2201 178.9 13.9701C178.65 13.7201 178.36 13.5251 178.02 13.3751C177.68 13.2301 177.31 13.1551 176.9 13.1551C176.48 13.1551 176.1 13.2301 175.76 13.3751C175.42 13.5201 175.13 13.7251 174.89 13.9801C174.645 14.2351 174.455 14.5301 174.315 14.8701C174.175 15.2101 174.09 15.5701 174.065 15.9501H179.75C179.73 15.5701 179.645 15.2051 179.495 14.8601Z" fill="url(#paint5_linear_1_677)"/>
<path d="M183.915 19.6351C184.07 19.8851 184.27 20.0801 184.52 20.2301C184.77 20.3751 185.05 20.4801 185.36 20.5451C185.67 20.6101 185.995 20.6401 186.325 20.6401C186.58 20.6401 186.85 20.6201 187.13 20.5851C187.41 20.5451 187.67 20.4751 187.905 20.3751C188.14 20.2751 188.335 20.1251 188.49 19.9251C188.645 19.7251 188.72 19.4751 188.72 19.1701C188.72 18.7501 188.56 18.4301 188.24 18.2151C187.92 18.0001 187.52 17.8251 187.045 17.6901C186.565 17.5551 186.045 17.4351 185.485 17.3251C184.925 17.2151 184.405 17.0651 183.925 16.8651C183.445 16.6651 183.05 16.3901 182.73 16.0351C182.41 15.6801 182.25 15.1801 182.25 14.5451C182.25 14.0501 182.36 13.6201 182.585 13.2651C182.81 12.9101 183.095 12.6201 183.445 12.3951C183.795 12.1701 184.19 12.0051 184.63 11.8951C185.07 11.7851 185.505 11.7301 185.94 11.7301C186.5 11.7301 187.02 11.7801 187.49 11.8751C187.96 11.9701 188.38 12.1351 188.745 12.3701C189.11 12.6051 189.4 12.9251 189.615 13.3251C189.83 13.7251 189.96 14.2301 190 14.8251H188.375C188.35 14.5051 188.265 14.2401 188.125 14.0301C187.985 13.8201 187.805 13.6501 187.59 13.5251C187.375 13.4001 187.135 13.3051 186.87 13.2501C186.61 13.1951 186.345 13.1651 186.075 13.1651C185.83 13.1651 185.585 13.1851 185.34 13.2201C185.09 13.2601 184.865 13.3251 184.66 13.4201C184.455 13.5151 184.29 13.6451 184.165 13.8051C184.035 13.9651 183.975 14.1701 183.975 14.4251C183.975 14.7051 184.075 14.9401 184.27 15.1251C184.47 15.3101 184.72 15.4651 185.025 15.5851C185.33 15.7051 185.675 15.8101 186.06 15.8901C186.445 15.9751 186.825 16.0601 187.21 16.1501C187.62 16.2401 188.015 16.3501 188.405 16.4751C188.795 16.6051 189.14 16.7701 189.44 16.9801C189.74 17.1901 189.98 17.4551 190.165 17.7751C190.35 18.0951 190.44 18.4901 190.44 18.9601C190.44 19.5601 190.315 20.0551 190.065 20.4501C189.815 20.8451 189.49 21.1651 189.09 21.4051C188.69 21.6501 188.235 21.8151 187.73 21.9101C187.225 22.0051 186.725 22.0551 186.23 22.0551C185.68 22.0551 185.16 21.9951 184.66 21.8851C184.165 21.7701 183.72 21.5801 183.34 21.3201C182.955 21.0601 182.65 20.7151 182.42 20.2851C182.19 19.8601 182.065 19.3401 182.035 18.7251H183.66C183.68 19.0851 183.76 19.3851 183.915 19.6351Z" fill="url(#paint6_linear_1_677)"/>
<path d="M192.97 19.6351C193.125 19.8851 193.325 20.0801 193.575 20.2301C193.825 20.3751 194.105 20.4801 194.415 20.5451C194.73 20.6101 195.05 20.6401 195.38 20.6401C195.635 20.6401 195.905 20.6201 196.185 20.5851C196.465 20.5451 196.725 20.4751 196.96 20.3751C197.195 20.2751 197.39 20.1251 197.545 19.9251C197.7 19.7251 197.775 19.4751 197.775 19.1701C197.775 18.7501 197.615 18.4301 197.295 18.2151C196.975 18.0001 196.58 17.8251 196.1 17.6901C195.62 17.5551 195.1 17.4351 194.54 17.3251C193.98 17.2151 193.46 17.0651 192.98 16.8651C192.5 16.6651 192.105 16.3901 191.785 16.0351C191.465 15.6801 191.305 15.1801 191.305 14.5451C191.305 14.0501 191.415 13.6201 191.64 13.2651C191.865 12.9101 192.15 12.6201 192.5 12.3951C192.85 12.1701 193.245 12.0051 193.685 11.8951C194.125 11.7851 194.56 11.7301 194.995 11.7301C195.555 11.7301 196.075 11.7801 196.545 11.8751C197.015 11.9701 197.435 12.1351 197.8 12.3701C198.165 12.6051 198.455 12.9251 198.67 13.3251C198.885 13.7251 199.015 14.2301 199.055 14.8251H197.43C197.405 14.5051 197.32 14.2401 197.18 14.0301C197.04 13.8201 196.86 13.6501 196.645 13.5251C196.43 13.4001 196.19 13.3051 195.925 13.2501C195.665 13.1951 195.4 13.1651 195.13 13.1651C194.885 13.1651 194.64 13.1851 194.395 13.2201C194.145 13.2601 193.92 13.3251 193.715 13.4201C193.51 13.5151 193.345 13.6451 193.215 13.8051C193.09 13.9651 193.025 14.1701 193.025 14.4251C193.025 14.7051 193.125 14.9401 193.32 15.1251C193.52 15.3101 193.77 15.4651 194.075 15.5851C194.38 15.7051 194.725 15.8101 195.11 15.8901C195.495 15.9751 195.875 16.0601 196.26 16.1501C196.67 16.2401 197.065 16.3501 197.455 16.4751C197.845 16.6051 198.19 16.7701 198.49 16.9801C198.79 17.1901 199.03 17.4551 199.215 17.7751C199.4 18.0951 199.49 18.4901 199.49 18.9601C199.49 19.5601 199.365 20.0551 199.115 20.4501C198.865 20.8451 198.54 21.1651 198.14 21.4051C197.74 21.6501 197.285 21.8151 196.78 21.9101C196.275 22.0051 195.775 22.0551 195.28 22.0551C194.73 22.0551 194.21 21.9951 193.71 21.8851C193.21 21.7701 192.77 21.5801 192.39 21.3201C192.005 21.0601 191.7 20.7151 191.47 20.2851C191.24 19.8601 191.115 19.3401 191.085 18.7251H192.71C192.73 19.0851 192.815 19.3851 192.97 19.6351Z" fill="url(#paint7_linear_1_677)"/>
</g>
<defs>
<linearGradient id="paint0_linear_1_677" x1="128.24" y1="8.18506" x2="139.396" y2="8.52083" gradientUnits="userSpaceOnUse">
<stop offset="0.0184" stop-color="#43CD66"/>
<stop offset="0.9951" stop-color="#00A429"/>
</linearGradient>
<linearGradient id="paint1_linear_1_677" x1="140.395" y1="11.9501" x2="148.885" y2="12.213" gradientUnits="userSpaceOnUse">
<stop offset="0.0184" stop-color="#43CD66"/>
<stop offset="0.9951" stop-color="#00A429"/>
</linearGradient>
<linearGradient id="paint2_linear_1_677" x1="149.805" y1="11.7301" x2="158.523" y2="12.0015" gradientUnits="userSpaceOnUse">
<stop offset="0.0184" stop-color="#43CD66"/>
<stop offset="0.9951" stop-color="#00A429"/>
</linearGradient>
<linearGradient id="paint3_linear_1_677" x1="159.475" y1="8.18506" x2="161.162" y2="8.19274" gradientUnits="userSpaceOnUse">
<stop offset="0.0184" stop-color="#43CD66"/>
<stop offset="0.9951" stop-color="#00A429"/>
</linearGradient>
<linearGradient id="paint4_linear_1_677" x1="162.93" y1="11.7201" x2="171.42" y2="11.9826" gradientUnits="userSpaceOnUse">
<stop offset="0.0184" stop-color="#43CD66"/>
<stop offset="0.9951" stop-color="#00A429"/>
</linearGradient>
<linearGradient id="paint5_linear_1_677" x1="172.35" y1="11.7251" x2="181.819" y2="12.0452" gradientUnits="userSpaceOnUse">
<stop offset="0.0184" stop-color="#43CD66"/>
<stop offset="0.9951" stop-color="#00A429"/>
</linearGradient>
<linearGradient id="paint6_linear_1_677" x1="182.035" y1="11.7301" x2="190.753" y2="12.0015" gradientUnits="userSpaceOnUse">
<stop offset="0.0184" stop-color="#43CD66"/>
<stop offset="0.9951" stop-color="#00A429"/>
</linearGradient>
<linearGradient id="paint7_linear_1_677" x1="191.085" y1="11.7301" x2="199.803" y2="12.0015" gradientUnits="userSpaceOnUse">
<stop offset="0.0184" stop-color="#43CD66"/>
<stop offset="0.9951" stop-color="#00A429"/>
</linearGradient>
<clipPath id="clip0_1_677">
<rect width="200" height="30" fill="white"/>
</clipPath>
</defs>
</svg>
