<svg width="254" height="254" viewBox="0 0 254 254" fill="none" xmlns="http://www.w3.org/2000/svg">
<path d="M254 127C254 159.592 241.469 190.938 219.002 214.548C196.534 238.159 165.849 252.228 133.296 253.844C100.744 255.46 68.816 244.499 44.1205 223.229C19.4249 201.959 3.8519 172.009 0.624271 139.577C-2.60335 107.144 6.76146 74.7127 26.7807 48.993C46.7999 23.2733 75.9411 6.23469 108.174 1.40317C140.406 -3.42834 173.262 4.31713 199.943 23.0367C226.623 41.7562 245.086 70.0169 251.509 101.97L219.919 108.321C215.125 84.4744 201.347 63.3839 181.436 49.4138C161.525 35.4437 137.005 29.6634 112.95 33.2691C88.8956 36.8748 67.148 49.5905 52.208 68.7846C37.2679 87.9788 30.2791 112.182 32.6878 136.386C35.0965 160.59 46.7184 182.941 65.1483 198.814C83.5782 214.687 107.405 222.867 131.699 221.662C155.992 220.456 178.892 209.956 195.659 192.336C212.427 174.716 221.778 151.323 221.778 127H254Z" fill="#3BC85F"/>
</svg>
